<?xml version="1.0" standalone="no"?>
<!DOCTYPE svg PUBLIC "-//W3C//DTD SVG 20010904//EN"
 "http://www.w3.org/TR/2001/REC-SVG-20010904/DTD/svg10.dtd">
<svg version="1.0" xmlns="http://www.w3.org/2000/svg"
 width="225.000000pt" height="225.000000pt" viewBox="0 0 225.000000 225.000000"
 preserveAspectRatio="xMidYMid meet">

<g transform="translate(0.000000,225.000000) scale(0.100000,-0.100000)"
fill="#000000" stroke="none">
<path d="M1085 1506 c101 -33 190 -81 249 -134 l51 -46 -44 47 c-60 63 -248
158 -310 157 -9 -1 16 -11 54 -24z"/>
<path d="M942 1418 c-18 -18 -14 -56 7 -68 30 -15 38 -12 13 6 -24 17 -29 43
-10 62 7 7 10 12 7 12 -3 0 -10 -5 -17 -12z"/>
<path d="M1020 1415 c7 -8 10 -27 7 -41 -4 -23 -3 -24 11 -10 13 12 13 20 4
41 -6 14 -17 25 -23 25 -8 0 -8 -4 1 -15z"/>
<path d="M1355 1272 c-101 -5 -95 4 -95 -137 0 -79 -4 -126 -11 -131 -7 -4 0
-14 18 -25 21 -14 46 -19 100 -19 102 0 103 2 103 159 0 156 -3 159 -115 153z
m25 -101 c0 -33 -4 -62 -9 -65 -5 -4 -5 -20 1 -40 11 -36 6 -66 -12 -66 -6 0
-10 43 -10 115 0 96 3 115 15 115 12 0 15 -13 15 -59z"/>
<path d="M190 1115 l0 -155 45 0 45 0 0 70 c0 55 3 70 15 70 11 0 15 -16 17
-67 l3 -68 43 -3 42 -3 0 155 0 156 -45 0 -45 0 0 -65 c0 -51 -3 -65 -15 -65
-12 0 -15 14 -15 65 l0 65 -45 0 -45 0 0 -155z"/>
<path d="M452 1258 c-8 -8 -12 -55 -12 -145 0 -155 -1 -153 105 -153 106 0
105 -2 105 155 0 123 -2 135 -19 145 -27 14 -164 13 -179 -2z m108 -143 c0
-96 -3 -115 -15 -115 -12 0 -15 19 -15 115 0 96 3 115 15 115 12 0 15 -19 15
-115z"/>
<path d="M682 1118 l3 -153 43 -3 42 -3 0 59 c0 63 4 74 26 65 10 -4 14 -23
14 -64 l0 -59 45 0 45 0 0 59 c0 48 -4 63 -19 73 -20 14 -20 14 0 26 15 10 19
24 19 67 0 74 -17 85 -132 85 l-89 0 3 -152z m123 57 c0 -38 -4 -50 -15 -50
-11 0 -16 14 -18 53 -3 47 -1 53 15 50 14 -3 18 -13 18 -53z"/>
<path d="M932 1118 l3 -153 43 -3 42 -3 0 155 0 156 -45 0 -46 0 3 -152z"/>
<path d="M1052 1253 c2 -13 16 -20 44 -23 l41 -5 -44 -110 c-58 -149 -58 -153
15 -158 31 -2 -163 -4 -431 -5 l-488 -2 3 -137 3 -138 783 -3 782 -2 0 140 0
140 -297 2 c-164 0 -283 3 -265 5 24 3 32 9 32 24 0 16 -7 19 -45 19 -25 0
-45 1 -45 3 0 1 20 53 45 116 25 63 45 122 45 133 0 16 -9 18 -91 18 -81 0
-90 -2 -87 -17z m-684 -345 c-3 -7 -17 -14 -31 -16 -27 -3 -27 -5 -27 -78 0
-43 -4 -74 -10 -74 -6 0 -10 32 -10 75 0 73 -1 75 -24 75 -26 0 -40 12 -29 24
3 3 35 6 71 6 46 0 63 -3 60 -12z m286 -21 c-1 -23 1 -25 33 -20 24 4 38 2 44
-8 12 -19 11 -119 -1 -119 -5 0 -10 18 -10 39 0 52 -8 71 -30 71 -27 0 -42
-25 -38 -66 2 -23 -2 -39 -10 -42 -9 -3 -12 20 -12 88 0 69 3 91 13 87 6 -2
12 -15 11 -30z m426 -57 c0 -53 -4 -90 -10 -90 -6 0 -10 37 -10 90 0 53 4 90
10 90 6 0 10 -37 10 -90z m338 69 c-2 -6 -8 -10 -13 -10 -5 0 -11 4 -13 10 -2
6 4 11 13 11 9 0 15 -5 13 -11z m-58 -52 c0 -43 -11 -58 -51 -67 l-34 -8 36
-1 c62 -2 78 -48 25 -72 -29 -13 -79 -4 -73 14 2 7 18 11 41 9 29 -3 37 0 34
10 -3 7 -16 13 -29 14 -49 2 -51 4 -46 26 3 12 1 30 -4 40 -16 29 13 66 53 70
44 5 48 2 48 -35z m-896 1 c27 -38 20 -48 -34 -48 -51 0 -61 -8 -35 -30 9 -7
26 -9 47 -5 29 7 31 6 19 -9 -18 -21 -54 -20 -79 2 -21 17 -26 31 -23 64 3 47
78 66 105 26z m136 12 c16 -11 9 -13 -31 -10 -33 2 -53 -22 -45 -54 7 -28 41
-43 60 -27 17 14 29 2 15 -16 -30 -35 -99 3 -99 54 0 51 57 81 100 53z m272
-3 c11 -17 10 -117 -1 -117 -6 0 -11 24 -13 53 -3 48 -5 52 -28 52 -22 0 -26
-5 -30 -48 -7 -68 -24 -63 -28 9 l-3 61 48 1 c27 1 50 -4 55 -11z m140 -4 c24
-21 23 -68 -2 -93 -24 -24 -48 -25 -78 -4 -26 18 -30 74 -6 98 20 21 63 20 86
-1z m206 4 c6 -6 13 -24 17 -37 8 -34 -27 -80 -61 -80 -53 0 -84 72 -47 112
19 21 75 24 91 5z m192 -52 c0 -37 -4 -65 -10 -65 -6 0 -10 28 -10 65 0 37 4
65 10 65 6 0 10 -28 10 -65z m145 35 c8 -16 15 -31 15 -35 0 -3 -22 -5 -50 -5
-27 0 -50 -4 -50 -9 0 -18 30 -33 55 -27 27 7 35 -8 9 -18 -29 -11 -54 -6 -74
14 -42 42 -13 110 45 110 28 0 37 -6 50 -30z m117 15 c-1 -5 -16 -8 -32 -7
-41 5 -38 -14 5 -32 49 -21 44 -76 -8 -76 -26 0 -59 19 -52 30 4 6 13 5 24 -2
19 -12 51 -5 51 11 0 5 -15 15 -34 21 -39 12 -48 26 -34 53 7 14 19 17 46 15
20 -2 36 -7 34 -13z"/>
<path d="M1284 845 c-9 -22 22 -53 37 -38 15 15 7 47 -14 51 -9 2 -20 -4 -23
-13z"/>
<path d="M387 844 c-15 -16 -5 -24 29 -24 24 0 34 4 32 13 -5 13 -50 22 -61
11z"/>
<path d="M942 838 c-29 -29 -3 -84 35 -76 25 5 40 52 23 72 -15 19 -41 21 -58
4z"/>
<path d="M1141 832 c-14 -26 -3 -60 21 -67 36 -12 59 26 42 69 -8 22 -51 20
-63 -2z"/>
<path d="M1477 844 c-15 -16 -5 -24 29 -24 24 0 34 4 32 13 -5 13 -50 22 -61
11z"/>
<path d="M1500 1115 l0 -155 40 0 40 0 0 77 c0 89 8 87 40 -9 l22 -68 49 0 49
0 0 155 0 155 -45 0 -45 0 -1 -72 -1 -73 -25 73 -25 72 -49 0 -49 0 0 -155z"/>
</g>
</svg>
