<?xml version="1.0" encoding="utf-8"?>
<!-- Generator: Adobe Illustrator 24.0.1, SVG Export Plug-In . SVG Version: 6.00 Build 0)  -->
<svg version="1.1" id="Layer_1" xmlns="http://www.w3.org/2000/svg" xmlns:xlink="http://www.w3.org/1999/xlink" x="0px" y="0px"
	 viewBox="0 0 250.6 63" style="enable-background:new 0 0 250.6 63;" xml:space="preserve">
<style type="text/css">
	.st0{fill:#87B84F;}
	.st1{fill:#404041;}
</style>
<g>
	<g>
		<path class="st0" d="M250.6,48.2c0,4-1.5,7.3-4.4,9.7c-2.9,2.4-6.7,3.6-11.2,3.6c-3.1,0-6.3-0.6-9.6-1.7c-3.3-1.1-6.3-2.7-8.8-4.7
			l4.3-6.9c4.9,3.7,9.7,5.6,14.3,5.6c2,0,3.6-0.5,4.8-1.4c1.2-0.9,1.8-2.1,1.8-3.5c0-2.1-2.8-4-8.4-5.7c-0.4-0.2-0.8-0.3-1-0.3
			c-8.8-2.4-13.2-6.4-13.2-11.9c0-3.9,1.5-7.1,4.6-9.4c3.1-2.4,7-3.5,11.9-3.5c4.9,0,9.5,1.4,13.9,4.3l-3.3,6.6
			c-3.4-2.3-7.2-3.4-11.2-3.4c-2.1,0-3.9,0.4-5.2,1.2c-1.3,0.8-2,1.9-2,3.5c0,1.4,0.7,2.4,2.1,3c1,0.5,2.3,0.9,4,1.4
			c1.7,0.4,3.3,0.9,4.6,1.3c1.3,0.4,2.6,0.9,3.9,1.4c1.2,0.5,2.6,1.3,4,2.2C249.1,41.1,250.6,44.1,250.6,48.2z"/>
	</g>
	<g>
		<path class="st1" d="M8.9,37.8v22.9H0V18.3h8.9v7.7c1.3-2.6,3.2-4.6,5.8-6.1s5.4-2.2,8.3-2.2c6.7,0,11.2,2.8,13.6,8.3
			c4.2-5.5,9.4-8.3,15.7-8.3c4.8,0,8.6,1.5,11.6,4.4c2.9,2.9,4.4,7.1,4.4,12.7v26h-8.9V37.4c0-7.8-3.2-11.7-9.7-11.7
			c-3,0-5.7,1-7.9,2.9c-2.3,1.9-3.4,4.8-3.5,8.5v23.6h-8.9V37.4c0-4-0.7-7-2.1-8.9c-1.4-1.9-3.7-2.8-6.8-2.8s-5.8,1-8,3.1
			C10.1,30.9,8.9,33.8,8.9,37.8z"/>
	</g>
	<g>
		<path class="st0" d="M143.2,17.7c5.7,0,10.5,2,14.6,5.9c4,3.9,6.1,9.2,6.1,15.7s-2,11.8-6,15.9s-8.7,6.1-14,6.1
			c-5.3,0-10.1-2.3-14.4-7v6.4h-8.9V1.6h8.9v24.1C132.9,20.4,137.5,17.7,143.2,17.7z M129.3,39.6c0,4,1.2,7.3,3.7,9.9
			s5.4,3.9,8.9,3.9c3.5,0,6.6-1.3,9.2-3.8c2.6-2.6,3.9-5.9,3.9-9.9s-1.3-7.4-3.8-10.1c-2.6-2.7-5.6-4-9.2-4c-3.6,0-6.6,1.3-9,4
			C130.5,32.2,129.3,35.6,129.3,39.6z"/>
	</g>
	<g>
		<path class="st0" d="M169.9,9.9c-1.1-1.1-1.7-2.4-1.7-4s0.6-2.9,1.7-4c1.1-1.1,2.4-1.7,4-1.7s2.9,0.6,4,1.7c1.1,1.1,1.7,2.4,1.7,4
			s-0.6,2.9-1.7,4c-1.1,1.1-2.4,1.7-4,1.7C172.3,11.6,171,11,169.9,9.9z M178.2,60.7h-8.9V18.3h8.9V60.7z"/>
	</g>
	<g>
		<path class="st0" d="M198.4,25.5V47c0,2,0.5,3.6,1.6,4.8c1.1,1.2,2.6,1.8,4.5,1.8c1.9,0,3.7-0.9,5.5-2.8l3.7,6.3
			c-3.1,2.8-6.6,4.2-10.4,4.2c-3.8,0-7-1.3-9.7-3.9c-2.7-2.6-4-6.2-4-10.6V25.5h-5.3v-7.2h5.3V5h8.9v13.3h11.1v7.2L198.4,25.5
			L198.4,25.5z"/>
	</g>
	<path class="st1" d="M104,17.8H84.9c-6.8,0-12.4,5.6-12.4,12.4v19.2c0,6.8,5.6,12.4,12.4,12.4h7.4l-0.5-0.4c-2.1-1.7-3.4-4.3-3.4-7
		v-0.6h-3.5c-2.4,0-4.4-2-4.4-4.4V30.2c0-2.4,2-4.4,4.4-4.4H104c2.4,0,4.4,2,4.4,4.4v3.5h0.6c2.7,0,5.3,1.2,7,3.4l0.4,0.5v-7.4
		C116.4,23.4,110.9,17.8,104,17.8z"/>
	<path class="st1" d="M113.2,39.6c-1.3-1.6-3.3-2.7-5.5-2.7h-0.3h-8.8c-3.9,0-7,3.2-7,7v8.8V53c0,2.2,1,4.2,2.7,5.5
		c0.6,0.4,1.2,0.8,1.8,1.1l4.9,3.2l0.8-2.7h5.8c3.9,0,7-3.2,7-7v-9.1C114.7,42.3,114.2,40.8,113.2,39.6z M108.6,53
		c0,0.5-0.4,0.9-0.9,0.9h-9.1c-0.5,0-0.9-0.4-0.9-0.9v-0.3V44c0-0.5,0.4-0.9,0.9-0.9h8.8h0.3c0.5,0,0.9,0.4,0.9,0.9V53z"/>
</g>
</svg>
