<?xml version="1.0" encoding="utf-8"?>
<!-- Generator: Adobe Illustrator 24.0.1, SVG Export Plug-In . SVG Version: 6.00 Build 0)  -->
<svg version="1.1" id="Layer_1" xmlns="http://www.w3.org/2000/svg" xmlns:xlink="http://www.w3.org/1999/xlink" x="0px" y="0px"
	 viewBox="0 0 207.2 63" style="enable-background:new 0 0 207.2 63;" xml:space="preserve">
<style type="text/css">
	.st0{fill:#3F3F40;}
	.st1{fill:#00AC4C;}
</style>
<g>
	<g>
		<g>
			<path class="st0" d="M33.9,49c0,4-1.5,7.2-4.4,9.7c-2.9,2.4-6.7,3.6-11.2,3.6c-3.1,0-6.3-0.6-9.6-1.7c-3.3-1.1-6.2-2.7-8.8-4.7
				L4.1,49c4.9,3.7,9.7,5.6,14.3,5.6c2,0,3.6-0.5,4.8-1.4c1.2-0.9,1.7-2.1,1.7-3.5c0-2.1-2.8-4-8.4-5.7c-0.4-0.2-0.7-0.3-1-0.3
				C6.8,41.2,2.4,37.2,2.4,31.6c0-3.9,1.5-7.1,4.6-9.4s7-3.5,11.9-3.5s9.5,1.4,13.8,4.3l-3.3,6.6c-3.4-2.3-7.2-3.4-11.2-3.4
				c-2.1,0-3.8,0.4-5.2,1.2c-1.3,0.8-2,1.9-2,3.5c0,1.4,0.7,2.4,2.1,3c1,0.5,2.3,0.9,4,1.4c1.7,0.4,3.3,0.8,4.6,1.3
				c1.3,0.4,2.6,0.9,3.9,1.4c1.2,0.5,2.6,1.3,4,2.2C32.4,42,33.9,44.9,33.9,49z"/>
		</g>
	</g>
	<path class="st0" d="M68.4,41.9V19.3h8.8v41.9h-8.8v-7.6c-1.4,2.6-3.4,4.6-5.9,6.1c-2.5,1.5-5.2,2.2-8.1,2.2
		c-4.7,0-8.5-1.4-11.4-4.3s-4.4-7-4.4-12.5V19.3h8.8v22.9c0,7.7,3.2,11.6,9.6,11.6c3,0,5.7-1,7.9-3C67.3,48.7,68.4,45.8,68.4,41.9z"
		/>
	<path class="st0" d="M106,27.5c-4.3,0-7.6,1.4-9.8,4.2c-2.2,2.8-3.3,6.6-3.3,11.4V61h-8.8V19.3h8.8v8.4c1.4-2.6,3.3-4.8,5.8-6.4
		c2.5-1.6,5-2.5,7.7-2.6l0.1,8.9C106.4,27.5,106.2,27.5,106,27.5z"/>
	<path class="st0" d="M126.4,61.1l-16.8-41.9h9.1l12.7,31.7l12.7-31.7h9.1l-16.8,41.9H126.4z"/>
	<path class="st0" d="M169.7,26.4v36.4h-8.8V26.2c1.4,0.6,3,1,4.7,1C167,27.2,168.4,26.9,169.7,26.4z"/>
	<path class="st0" d="M192.3,26.3v21.2c0,2,0.5,3.6,1.6,4.8c1,1.2,2.5,1.8,4.4,1.8c1.9,0,3.7-0.9,5.4-2.8l3.6,6.2
		c-3.1,2.8-6.5,4.2-10.3,4.2c-3.7,0-6.9-1.3-9.6-3.9c-2.6-2.6-4-6.1-4-10.5v-21h-5.3v-7.1h5.3V6.1h8.8v13.1h11v7.1
		C203.3,26.3,192.3,26.3,192.3,26.3z"/>
	<path class="st1" d="M165.6,0.3c-6.5,0-11.8,5.3-11.8,11.8c0,4.8,2.9,9,7.1,10.8c1.4,0.6,3,1,4.7,1c1.4,0,2.8-0.2,4.1-0.7
		c4.5-1.7,7.7-6,7.7-11.1C177.4,5.5,172.1,0.3,165.6,0.3z M164.7,15.8c-4.7,0.5-5.5-6-5.5-6c0.4,0.5,1.5,1.8,4.4,1.9
		c2.9,0.1,8.2-3.6,8.2-3.6S169.4,15.3,164.7,15.8z"/>
</g>
</svg>
