<svg version="1.1" id="Layer_1" xmlns="http://www.w3.org/2000/svg" xmlns:xlink="http://www.w3.org/1999/xlink" x="0px" y="0px"
	 width="100%" viewBox="0 0 225 225" enable-background="new 0 0 225 225" xml:space="preserve">
<path fill="#FDFDFD" opacity="1.000000" stroke="none" 
	d="
M125.000000,226.000000 
	C83.333336,226.000000 42.166672,226.000000 1.000005,226.000000 
	C1.000004,151.000000 1.000004,76.000015 1.000002,1.000016 
	C75.999992,1.000010 150.999985,1.000010 225.999969,1.000005 
	C225.999985,75.999985 225.999985,150.999969 226.000000,225.999969 
	C192.500000,226.000000 159.000000,226.000000 125.000000,226.000000 
M139.978775,56.845032 
	C139.978775,56.845032 139.851791,57.020363 140.103775,56.338234 
	C139.729294,55.868446 139.354813,55.398659 138.330063,54.731487 
	C137.888733,54.804832 137.447403,54.878178 136.145416,54.750629 
	C134.091141,54.817669 132.036880,54.884708 129.338608,54.737381 
	C128.897659,54.808720 128.456696,54.880062 127.094475,54.748817 
	C116.056831,54.816029 105.019188,54.883240 93.255547,54.732208 
	C92.508720,54.805588 91.761887,54.878963 90.130051,54.750374 
	C87.422935,54.838383 84.715828,54.926392 82.200813,54.854218 
	C82.200813,54.854218 82.083549,54.633286 81.778046,54.328388 
	C81.564896,54.603607 81.351738,54.878822 81.079475,55.955982 
	C82.293388,56.595036 83.493843,57.752735 84.723511,57.784653 
	C90.488380,57.934280 94.593040,60.065655 95.839890,66.981682 
	C95.945114,89.330727 96.050346,111.679764 96.017059,134.886902 
	C97.468338,155.637131 106.707863,167.966049 125.671974,170.299133 
	C139.706268,172.025696 154.272919,171.940857 168.326401,170.299606 
	C182.849625,168.603500 193.407684,159.984894 196.580795,144.690277 
	C197.518814,140.168961 197.897141,135.461761 197.933075,130.835083 
	C198.091904,110.375015 197.848694,89.909813 198.232269,69.455490 
	C198.296539,66.029190 200.735718,62.647423 202.882309,59.073082 
	C206.107224,58.478870 209.332123,57.884659 213.824127,57.056976 
	C212.217636,55.917809 211.328583,54.738388 210.432388,54.732929 
	C192.366608,54.622890 174.299896,54.626774 156.233887,54.712837 
	C155.405075,54.716785 154.580963,55.703312 153.754654,56.232204 
	C154.567657,56.761822 155.326645,57.617645 156.203293,57.762791 
	C159.447006,58.299831 162.729568,58.602283 166.000885,59.002239 
	C166.000885,59.002239 166.011749,58.998745 166.351761,59.462929 
	C166.842255,59.747169 167.332764,60.031414 167.866531,60.152332 
	C167.866531,60.152332 167.698517,60.170254 167.910583,60.755791 
	C168.232224,61.008331 168.553848,61.260872 168.840027,61.816658 
	C168.840027,61.816658 169.082642,62.002010 169.099136,62.582085 
	C169.392242,63.073521 169.685349,63.564953 169.911835,64.985733 
	C169.947189,90.428474 170.030106,115.871315 169.982681,141.313904 
	C169.971573,147.278564 168.648682,152.967941 163.820023,157.055328 
	C155.643112,163.976944 146.327087,164.556412 136.663681,161.082840 
	C127.686729,157.856049 124.082436,150.746765 124.009018,141.617126 
	C123.827118,118.997681 123.599709,96.377350 123.640411,73.757828 
	C123.666420,59.303268 125.220718,57.965801 140.156143,57.826370 
	C140.257111,57.746670 140.454895,57.643703 140.442291,57.591309 
	C140.387436,57.363106 140.271378,57.149616 139.978775,56.845032 
M25.085037,59.553547 
	C25.390413,59.677105 25.695787,59.800659 26.290674,60.380714 
	C26.586676,60.577728 26.882677,60.774738 27.306641,61.400307 
	C27.476334,61.661789 27.709845,61.839348 27.985668,61.987415 
	C27.985668,61.987415 28.043560,61.995975 28.232431,62.815964 
	C28.655546,66.087128 29.445057,69.358368 29.444326,72.629433 
	C29.437979,101.075966 29.289915,129.522461 28.942881,158.658600 
	C26.547447,166.048859 19.815561,165.800186 13.591939,166.791397 
	C12.936745,170.347839 15.702212,168.970322 17.065525,168.976913 
	C34.550697,169.061661 52.036488,169.052078 69.521843,168.988495 
	C70.655495,168.984375 71.786827,168.343353 72.737556,167.195007 
	C66.081276,166.593109 59.874474,165.221909 57.156475,157.097046 
	C57.084110,127.069763 57.011745,97.042473 57.189407,66.333344 
	C57.787788,62.188030 60.475323,59.767624 64.928261,58.083668 
	C66.748451,57.989700 68.590096,58.030804 70.380074,57.746552 
	C71.318855,57.597477 72.167061,56.878109 73.056168,56.416275 
	C72.117142,55.843998 71.178978,54.775528 70.238953,54.773884 
	C56.153618,54.749199 42.068039,54.865177 27.337217,54.743835 
	C26.896490,54.811901 26.455763,54.879967 25.130251,54.737553 
	C22.539181,55.047909 19.948109,55.358269 17.188059,55.012840 
	C16.962341,55.010040 16.736622,55.007240 15.925512,54.828785 
	C14.954891,55.264046 13.984269,55.699310 13.013647,56.134579 
	C14.293591,56.607716 15.573536,57.080853 17.377590,57.760193 
	C17.936785,57.730068 18.495977,57.699940 19.774940,57.931980 
	C21.490505,58.330437 23.206070,58.728893 24.927872,59.029617 
	C24.927872,59.029617 24.856890,59.097080 25.085037,59.553547 
z"/>
<path fill="#05569A" opacity="1.000000" stroke="none" 
	d="
M91.015060,54.952339 
	C91.761887,54.878963 92.508720,54.805588 93.906982,55.147888 
	C105.159164,55.686916 115.759811,55.825207 126.360916,55.890984 
	C126.910561,55.894398 127.464050,55.278805 128.015747,54.951405 
	C128.456696,54.880062 128.897659,54.808720 129.892487,55.126240 
	C132.601044,54.955952 135.167328,59.187702 137.006073,54.951523 
	C137.447403,54.878178 137.888733,54.804832 138.669830,55.127888 
	C139.290329,56.022980 139.571060,56.521671 139.851791,57.020363 
	C139.851791,57.020363 139.978775,56.845032 139.921783,57.075493 
	C139.864792,57.305950 139.768875,57.784946 139.768875,57.784946 
	C125.220718,57.965801 123.666420,59.303268 123.640411,73.757828 
	C123.599709,96.377350 123.827118,118.997681 124.009018,141.617126 
	C124.082436,150.746765 127.686729,157.856049 136.663681,161.082840 
	C146.327087,164.556412 155.643112,163.976944 163.820023,157.055328 
	C168.648682,152.967941 169.971573,147.278564 169.982681,141.313904 
	C170.030106,115.871315 169.947189,90.428474 169.937653,64.223068 
	C169.669876,62.974277 169.376251,62.488144 169.082642,62.002010 
	C169.082642,62.002010 168.840027,61.816658 168.785248,61.347015 
	C168.386490,60.641666 168.042511,60.405960 167.698517,60.170258 
	C167.698517,60.170254 167.866531,60.152332 167.766388,59.929276 
	C167.114731,59.470390 166.563248,59.234570 166.011749,58.998749 
	C166.011749,58.998745 166.000885,59.002239 165.839462,58.689690 
	C164.482895,57.700512 163.287750,57.023880 161.480103,56.000492 
	C174.704269,56.000492 187.275253,56.046234 199.845398,55.964169 
	C202.550720,55.946510 203.063095,56.973839 202.077515,59.245075 
	C200.735718,62.647423 198.296539,66.029190 198.232269,69.455490 
	C197.848694,89.909813 198.091904,110.375015 197.933075,130.835083 
	C197.897141,135.461761 197.518814,140.168961 196.580795,144.690277 
	C193.407684,159.984894 182.849625,168.603500 168.326401,170.299606 
	C154.272919,171.940857 139.706268,172.025696 125.671974,170.299133 
	C106.707863,167.966049 97.468338,155.637131 96.303864,134.626373 
	C97.059250,134.910614 97.527824,135.455399 98.293655,135.706177 
	C98.724762,134.770172 98.974800,134.128311 98.975586,133.486145 
	C98.998833,114.550293 99.015793,95.614357 98.956924,76.678673 
	C98.953110,75.453102 98.334999,74.229439 98.000473,72.614159 
	C97.320312,70.168388 96.642311,68.113335 95.964317,66.058289 
	C94.593040,60.065655 90.488380,57.934280 84.723511,57.784653 
	C83.493843,57.752735 82.293388,56.595036 81.370537,55.470688 
	C81.802246,54.868027 81.942902,54.750656 82.083549,54.633286 
	C82.083549,54.633286 82.200813,54.854218 82.379456,55.219975 
	C85.377083,55.374599 88.196068,55.163467 91.015060,54.952339 
z"/>
<path fill="#01549A" opacity="1.000000" stroke="none" 
	d="
M13.989552,167.147278 
	C19.815561,165.800186 26.547447,166.048859 29.311810,158.041534 
	C30.120134,154.613617 30.559528,151.802734 31.296505,148.699432 
	C31.726757,147.764343 31.974815,147.121796 31.975428,146.479019 
	C31.997608,123.212784 32.011894,99.946487 31.956440,76.680374 
	C31.953518,75.455330 31.332283,74.231750 30.997471,72.576897 
	C30.011879,68.762863 29.027719,65.379417 28.043560,61.995975 
	C28.043560,61.995975 27.985668,61.987415 27.916142,61.755951 
	C27.685669,61.265697 27.463024,61.081451 27.178680,60.971748 
	C26.882677,60.774738 26.586676,60.577728 26.019455,59.937820 
	C25.508150,59.234612 25.211035,59.101997 24.856890,59.097080 
	C24.856890,59.097080 24.927872,59.029617 24.891018,58.711628 
	C22.921165,58.152363 20.988169,57.911087 19.055172,57.669815 
	C18.495977,57.699940 17.936785,57.730068 17.086124,57.012115 
	C16.700075,55.844173 16.605490,55.424309 16.510906,55.004440 
	C16.736622,55.007240 16.962341,55.010040 17.742649,55.452118 
	C20.869839,55.576939 23.442438,55.262486 26.015036,54.948036 
	C26.455763,54.879967 26.896490,54.811901 27.948586,55.152077 
	C38.115990,55.706985 47.676620,55.731289 57.224731,56.089355 
	C59.512089,56.175133 61.757801,57.371521 64.022667,58.057121 
	C60.475323,59.767624 57.787788,62.188030 56.778603,66.975616 
	C56.247604,68.264763 56.022705,68.911568 56.022274,69.558517 
	C56.003418,97.833076 55.991203,126.107658 56.047947,154.382111 
	C56.050392,155.601242 56.710438,156.819077 57.064148,158.037506 
	C59.874474,165.221909 66.081276,166.593109 72.365128,167.597412 
	C54.405533,168.000580 36.818287,168.025360 19.231342,167.964752 
	C17.483160,167.958725 15.736773,167.432205 13.989552,167.147278 
z"/>
<path fill="#0D569B" opacity="1.000000" stroke="none" 
	d="
M30.998924,148.991867 
	C30.559528,151.802734 30.120134,154.613617 29.432362,157.696732 
	C29.289915,129.522461 29.437979,101.075966 29.444326,72.629433 
	C29.445057,69.358368 28.655546,66.087128 28.137995,62.405968 
	C29.027719,65.379417 30.011879,68.762863 30.997656,73.044708 
	C30.999157,98.959366 30.999041,123.975616 30.998924,148.991867 
z"/>
<path fill="#0D5193" opacity="1.000000" stroke="none" 
	d="
M202.479919,59.159081 
	C203.063095,56.973839 202.550720,55.946510 199.845398,55.964169 
	C187.275253,56.046234 174.704269,56.000492 161.480103,56.000492 
	C163.287750,57.023880 164.482895,57.700512 165.837784,58.685017 
	C162.729568,58.602283 159.447006,58.299831 156.203293,57.762791 
	C155.326645,57.617645 154.567657,56.761822 153.754654,56.232208 
	C154.580963,55.703312 155.405075,54.716785 156.233887,54.712837 
	C174.299896,54.626774 192.366608,54.622890 210.432388,54.732929 
	C211.328583,54.738388 212.217636,55.917809 213.824127,57.056976 
	C209.332123,57.884659 206.107224,58.478870 202.479919,59.159081 
z"/>
<path fill="#0B5192" opacity="1.000000" stroke="none" 
	d="
M97.996399,136.000183 
	C97.527824,135.455399 97.059250,134.910614 96.373123,134.197327 
	C96.050346,111.679764 95.945114,89.330727 95.902100,66.519989 
	C96.642311,68.113335 97.320312,70.168388 97.999527,73.082230 
	C97.999298,94.627419 97.997856,115.313797 97.996399,136.000183 
z"/>
<path fill="#004480" opacity="1.000000" stroke="none" 
	d="
M57.110313,157.567276 
	C56.710438,156.819077 56.050392,155.601242 56.047947,154.382111 
	C55.991203,126.107658 56.003418,97.833076 56.022274,69.558517 
	C56.022705,68.911568 56.247604,68.264763 56.653587,67.316544 
	C57.011745,97.042473 57.084110,127.069763 57.110313,157.567276 
z"/>
<path fill="#074D92" opacity="1.000000" stroke="none" 
	d="
M64.475464,58.070396 
	C61.757801,57.371521 59.512089,56.175133 57.224731,56.089355 
	C47.676620,55.731289 38.115990,55.706985 28.271236,55.254181 
	C42.068039,54.865177 56.153618,54.749199 70.238953,54.773884 
	C71.178978,54.775528 72.117142,55.843998 73.056168,56.416275 
	C72.167061,56.878109 71.318855,57.597477 70.380074,57.746552 
	C68.590096,58.030804 66.748451,57.989700 64.475464,58.070396 
z"/>
<path fill="#145382" opacity="1.000000" stroke="none" 
	d="
M13.790747,166.969330 
	C15.736773,167.432205 17.483160,167.958725 19.231342,167.964752 
	C36.818287,168.025360 54.405533,168.000580 72.455963,167.999222 
	C71.786827,168.343353 70.655495,168.984375 69.521843,168.988495 
	C52.036488,169.052078 34.550697,169.061661 17.065525,168.976913 
	C15.702212,168.970322 12.936745,170.347839 13.790747,166.969330 
z"/>
<path fill="#024990" opacity="1.000000" stroke="none" 
	d="
M127.555115,54.850113 
	C127.464050,55.278805 126.910561,55.894398 126.360916,55.890984 
	C115.759811,55.825207 105.159164,55.686916 94.269981,55.257011 
	C105.019188,54.883240 116.056831,54.816029 127.555115,54.850113 
z"/>
<path fill="#024990" opacity="1.000000" stroke="none" 
	d="
M136.575745,54.851074 
	C135.167328,59.187702 132.601044,54.955952 130.214493,55.233421 
	C132.036880,54.884708 134.091141,54.817669 136.575745,54.851074 
z"/>
<path fill="#024990" opacity="1.000000" stroke="none" 
	d="
M90.572556,54.851357 
	C88.196068,55.163467 85.377083,55.374599 82.283401,55.300064 
	C84.715828,54.926392 87.422935,54.838383 90.572556,54.851357 
z"/>
<path fill="#074D92" opacity="1.000000" stroke="none" 
	d="
M19.415056,57.800896 
	C20.988169,57.911087 22.921165,58.152363 24.887899,58.760494 
	C23.206070,58.728893 21.490505,58.330437 19.415056,57.800896 
z"/>
<path fill="#074D92" opacity="1.000000" stroke="none" 
	d="
M16.218208,54.916611 
	C16.605490,55.424309 16.700075,55.844173 16.824070,56.909016 
	C15.573536,57.080853 14.293591,56.607716 13.013647,56.134575 
	C13.984269,55.699310 14.954891,55.264046 16.218208,54.916611 
z"/>
<path fill="#074D92" opacity="1.000000" stroke="none" 
	d="
M25.572643,54.842793 
	C23.442438,55.262486 20.869839,55.576939 17.827141,55.780014 
	C19.948109,55.358269 22.539181,55.047909 25.572643,54.842793 
z"/>
<path fill="#0D5193" opacity="1.000000" stroke="none" 
	d="
M166.181763,59.230839 
	C166.563248,59.234570 167.114731,59.470390 167.744751,60.010937 
	C167.332764,60.031414 166.842255,59.747169 166.181763,59.230839 
z"/>
<path fill="#0D5193" opacity="1.000000" stroke="none" 
	d="
M169.090881,62.292046 
	C169.376251,62.488144 169.669876,62.974277 169.970978,63.758400 
	C169.685349,63.564953 169.392242,63.073521 169.090881,62.292046 
z"/>
<path fill="#024990" opacity="1.000000" stroke="none" 
	d="
M139.977783,56.679298 
	C139.571060,56.521671 139.290329,56.022980 138.994965,55.226578 
	C139.354813,55.398659 139.729294,55.868446 139.977783,56.679298 
z"/>
<path fill="#A2BFD5" opacity="1.000000" stroke="none" 
	d="
M139.962509,57.805656 
	C139.768875,57.784946 139.864792,57.305950 140.021164,57.118366 
	C140.271378,57.149616 140.387436,57.363106 140.442291,57.591309 
	C140.454895,57.643703 140.257111,57.746670 139.962509,57.805656 
z"/>
<path fill="#0D569B" opacity="1.000000" stroke="none" 
	d="
M27.242661,61.186028 
	C27.463024,61.081451 27.685669,61.265697 27.926891,61.728737 
	C27.709845,61.839348 27.476334,61.661789 27.242661,61.186028 
z"/>
<path fill="#0D5193" opacity="1.000000" stroke="none" 
	d="
M167.804550,60.463024 
	C168.042511,60.405960 168.386490,60.641666 168.802979,61.195389 
	C168.553848,61.260872 168.232224,61.008331 167.804550,60.463024 
z"/>
<path fill="#0D569B" opacity="1.000000" stroke="none" 
	d="
M24.970963,59.325314 
	C25.211035,59.101997 25.508150,59.234612 25.874701,59.709572 
	C25.695787,59.800659 25.390413,59.677105 24.970963,59.325314 
z"/>
<path fill="#A2BFD5" opacity="1.000000" stroke="none" 
	d="
M81.930801,54.480835 
	C81.942902,54.750656 81.802246,54.868027 81.400093,55.069717 
	C81.351738,54.878822 81.564896,54.603607 81.930801,54.480835 
z"/>
<path fill="#0357A8" opacity="1.000000" stroke="none" 
	d="
M98.293655,135.706177 
	C97.997856,115.313797 97.999298,94.627419 98.001694,73.472961 
	C98.334999,74.229439 98.953110,75.453102 98.956924,76.678673 
	C99.015793,95.614357 98.998833,114.550293 98.975586,133.486145 
	C98.974800,134.128311 98.724762,134.770172 98.293655,135.706177 
z"/>
<path fill="#0F5094" opacity="1.000000" stroke="none" 
	d="
M31.296505,148.699432 
	C30.999041,123.975616 30.999157,98.959366 30.999088,73.475304 
	C31.332283,74.231750 31.953518,75.455330 31.956440,76.680374 
	C32.011894,99.946487 31.997608,123.212784 31.975428,146.479019 
	C31.974815,147.121796 31.726757,147.764343 31.296505,148.699432 
z"/>
</svg>